HIERARCHY
ROOT root
{
	OFFSET 0.000000 0.000000 0.000000
	CHANNELS 6 Xposition Yposition Zposition Zrotation Yrotation Xrotation
	JOINT lhip
	{
		OFFSET 0.058581 -0.082280 -0.017664
		CHANNELS 3 Zrotation Yrotation Xrotation
		JOINT lknee
		{
			OFFSET 0.043451 -0.386469 0.008037
			CHANNELS 3 Zrotation Yrotation Xrotation
			JOINT lankle
			{
				OFFSET -0.014790 -0.426874 -0.037428
				CHANNELS 3 Zrotation Yrotation Xrotation
				JOINT ltoe
				{
					OFFSET 0.041054 -0.060286 0.122042
					CHANNELS 3 Zrotation Yrotation Xrotation
					End Site
					{
						OFFSET 0.000000 0.000000 0.000000
					}
				}
			}
		}
	}
	JOINT rhip
	{
		OFFSET -0.060310 -0.090513 -0.013543
		CHANNELS 3 Zrotation Yrotation Xrotation
		JOINT rknee
		{
			OFFSET -0.043257 -0.383688 -0.004843
			CHANNELS 3 Zrotation Yrotation Xrotation
			JOINT rankle
			{
				OFFSET 0.019056 -0.420046 -0.034562
				CHANNELS 3 Zrotation Yrotation Xrotation
				JOINT rtoe
				{
					OFFSET -0.034840 -0.062106 0.130323
					CHANNELS 3 Zrotation Yrotation Xrotation
					End Site
					{
						OFFSET 0.000000 0.000000 0.000000
					}
				}
			}
		}
	}
	JOINT lowerback
	{
		OFFSET 0.004439 0.124404 -0.038385
		CHANNELS 3 Zrotation Yrotation Xrotation
		JOINT upperback
		{
			OFFSET 0.004488 0.137956 0.026820
			CHANNELS 3 Zrotation Yrotation Xrotation
			JOINT chest
			{
				OFFSET -0.002265 0.056032 0.002855
				CHANNELS 3 Zrotation Yrotation Xrotation
				JOINT lowerneck
				{
					OFFSET -0.013390 0.211636 -0.033468
					CHANNELS 3 Zrotation Yrotation Xrotation
					JOINT upperneck
					{
						OFFSET 0.010113 0.088937 0.050410
						CHANNELS 3 Zrotation Yrotation Xrotation
						End Site
						{
							OFFSET 0.000000 0.000000 0.000000
						}
					}
				}
				JOINT lclavicle
				{
					OFFSET 0.071702 0.114000 -0.018898
					CHANNELS 3 Zrotation Yrotation Xrotation
					JOINT lshoulder
					{
						OFFSET 0.122921 0.045205 -0.019046
						CHANNELS 3 Zrotation Yrotation Xrotation
						JOINT lelbow
						{
							OFFSET 0.255332 -0.015649 -0.022946
							CHANNELS 3 Zrotation Yrotation Xrotation
							JOINT lwrist
							{
								OFFSET 0.265709 0.012698 -0.007375
								CHANNELS 3 Zrotation Yrotation Xrotation
								End Site
								{
									OFFSET 0.000000 0.000000 0.000000
								}
							}
						}
					}
				}
				JOINT rclavicle
				{
					OFFSET -0.082954 0.112472 -0.023707
					CHANNELS 3 Zrotation Yrotation Xrotation
					JOINT rshoulder
					{
						OFFSET -0.113228 0.046853 -0.008472
						CHANNELS 3 Zrotation Yrotation Xrotation
						JOINT relbow
						{
							OFFSET -0.260127 -0.014369 -0.031269
							CHANNELS 3 Zrotation Yrotation Xrotation
							JOINT rwrist
							{
								OFFSET -0.269108 0.006794 -0.006027
								CHANNELS 3 Zrotation Yrotation Xrotation
								End Site
								{
									OFFSET 0.000000 0.000000 0.000000
								}
							}
						}
					}
				}
			}
		}
	}
}
MOTION
Frames: 5
Frame Time: 0.033333
-2.144409 0.677869 1.000970 102.220494 -7.417104 82.926938 -1.442064 -1.514507 -2.270087 -2.937308 -9.707957 12.081079 -3.769517 2.000332 -6.932469 0.000000 -0.000000 0.000000 -1.653185 -0.369119 8.124534 -5.523082 1.823420 2.806123 -0.946061 -9.103483 -13.721115 0.000000 -0.000000 0.000000 2.759856 -0.151972 11.967935 3.776048 -6.198909 1.610410 2.957349 -2.289239 0.270260 -2.247906 4.743725 -8.109066 -6.812580 2.832897 -8.295863 -20.210707 0.434013 3.688899 -57.387183 -6.013742 -0.382836 17.649307 -12.990036 -5.834877 -0.409004 2.924176 -16.201101 22.186392 6.817165 0.121986 66.260898 17.759526 12.627508 -25.527727 16.056763 -17.395726 -5.239332 -2.759880 -7.192101 
-2.140717 0.679231 1.001621 100.899489 -7.699058 83.023001 -1.682298 -1.322564 -2.229366 -3.376679 -9.493771 12.831623 -3.385539 2.718938 -7.065116 0.000000 -0.000000 0.000000 -1.898625 0.256142 6.574431 -5.462571 2.718412 6.030481 -1.082730 -9.039767 -14.526186 0.000000 -0.000000 0.000000 2.423524 -0.311344 11.773618 4.167115 -5.733605 1.803458 2.986725 -2.110588 0.534899 -1.831262 5.687522 -7.647689 -7.007132 3.620923 -8.116213 -20.045247 1.072481 3.483762 -56.755972 -5.712020 0.190031 16.755674 -13.178848 -3.670556 -2.047795 3.082945 -15.133403 22.538141 5.954687 -0.030706 65.944484 16.943878 12.499046 -24.317124 13.059269 -15.467166 -2.642869 -2.325335 -5.385007 
-2.137413 0.681551 1.001120 99.924472 -8.229721 82.823384 -2.217179 -1.177559 -2.000954 -3.748346 -9.492142 13.640229 -3.296957 3.294661 -7.017813 0.000000 -0.000000 0.000000 -2.293000 1.098745 5.007911 -5.536532 3.191312 9.901052 -0.972775 -9.320304 -15.728425 0.000000 -0.000000 0.000000 2.288128 -0.818924 12.289593 4.209743 -5.430991 1.359417 2.725480 -1.805847 0.647854 -1.342622 6.461962 -6.745518 -6.909347 4.003781 -7.288205 -19.931338 1.213285 3.190772 -56.175404 -5.054279 1.025564 15.295781 -14.711044 -0.771759 -4.353007 2.260659 -13.430260 22.370097 5.323541 0.067779 64.964979 15.504137 12.060828 -24.312577 11.854879 -13.821259 1.707719 -4.892587 -3.798207 
-2.133944 0.684154 0.999611 99.576167 -8.910604 82.378888 -2.771747 -1.393324 -1.609662 -4.693133 -10.599566 14.468482 -3.724766 3.107107 -6.827427 0.000000 -0.000000 0.000000 -2.752670 1.779121 3.601580 -5.579224 4.210534 14.160941 -0.911222 -10.429943 -17.098327 0.000000 -0.000000 0.000000 2.066768 -0.951765 11.961404 4.292693 -5.345441 2.077185 2.332666 -2.056105 1.013119 -1.100003 6.847626 -6.283374 -6.926634 4.212363 -6.853090 -20.085658 0.697477 3.056633 -55.433830 -5.435346 2.405585 12.918794 -16.019144 1.975977 -5.207432 2.674693 -13.817040 22.255834 4.533132 -0.191423 62.843713 14.084123 11.528505 -24.687436 12.465745 -13.470673 2.849728 -5.529275 -3.481851 
-2.131239 0.686537 0.997155 99.633946 -9.825653 81.896018 -3.526872 -1.612629 -1.647337 -5.629090 -10.542516 15.870390 -3.338108 3.184626 -7.247209 0.000000 -0.000000 0.000000 -3.391782 2.500709 2.111572 -5.298387 4.969941 18.679623 -1.496250 -11.681150 -18.131628 0.000000 -0.000000 0.000000 1.805974 -1.615454 11.775086 4.101449 -5.439478 2.465017 1.714322 -2.275934 1.120838 -1.098623 6.921197 -5.373456 -6.878187 4.568743 -6.102154 -20.848644 -0.393618 3.251124 -54.396249 -5.972585 3.058279 11.206307 -17.192120 3.548452 -8.267198 1.616557 -13.181587 22.218353 3.957498 -0.036078 60.283770 12.117723 10.499442 -25.523748 14.232545 -14.663541 5.501511 -5.606915 -3.629285 
